<svg xmlns="http://www.w3.org/2000/svg" width="24" height="24" viewBox="0 0 24 24" fill="none">
  <path fill-rule="evenodd" clip-rule="evenodd" d="M15.2524 1.8995C17.0325 0.119434 19.9185 0.119434 21.6986 1.8995C23.4786 3.67956 23.4786 6.56562 21.6986 8.34568C20.6598 9.38449 18.0682 10.9932 15.7362 11.799C18.0682 12.6048 20.6598 14.2135 21.6986 15.2523C23.4786 17.0324 23.4786 19.9184 21.6986 21.6985C19.9185 23.4786 17.0325 23.4786 15.2524 21.6985C14.2136 20.6597 12.6049 18.0681 11.7991 15.7361C10.9933 18.0681 9.38459 20.6597 8.34578 21.6985C6.56571 23.4785 3.67966 23.4785 1.89959 21.6985C0.119529 19.9184 0.119529 17.0324 1.89959 15.2523C2.9384 14.2135 5.52996 12.6048 7.86196 11.799C5.52996 10.9932 2.93839 9.38449 1.89958 8.34568C0.119516 6.56561 0.119516 3.67956 1.89958 1.89949C3.67965 0.119427 6.5657 0.119427 8.34576 1.89949C9.38458 2.9383 10.9932 5.52986 11.7991 7.86186C12.6049 5.52987 14.2136 2.93831 15.2524 1.8995Z" fill="#3D6AFF"/>
</svg>